<svg xmlns="http://www.w3.org/2000/svg" viewBox="0 0 512 369.99"><defs><style>.cls-1{fill:#d38200;}</style></defs><title>Crypto_360_Bitbon_Today</title><g id="Layer_2" data-name="Layer 2"><g id="Layer_1-2" data-name="Layer 1"><path class="cls-1" d="M139.62,216.17c-8.55,0-16.91-2.09-16.91-11,0-7.22-3-9.88-15.2-9.88-10.46,0-14.06,2.28-14.06,10.83,0,16,12.53,35.91,45.21,35.91,26.61,0,48.07-11.78,48.07-42.94v-3.61c0-15.39-8.16-23.75-19.37-27.93,9.5-4.37,14.62-17.29,14.62-31.16,0-25.65-18.23-34.39-42.37-34.39-32.68,0-43.31,19.19-43.31,34,0,9.12,1.7,12,15.38,12,11,0,13.87-4.37,13.87-10.83,0-7.41,4.75-9.69,14.06-9.69,7.8,0,14.07,2.66,14.07,13.68,0,15.39-7.61,16.34-14.82,16.34-6.47,0-8.56,5.7-8.56,11.4s2.09,11.4,8.56,11.4c10.44,0,18.24,2.47,18.24,15.2v3.61C157.1,211.42,152.54,216.17,139.62,216.17Z"/><path class="cls-1" d="M256.27,127.82c8.93,0,16.53,3.8,16.53,11,0,8.74,7.22,10.83,15.4,10.83,9.5,0,13.87-2.85,13.87-12,0-15.77-12.73-35.72-44.84-35.72-27.37,0-48.46,12.16-48.46,44.84v50.35c0,32.68,20.52,44.84,46.75,44.84s46.55-12.16,46.55-44.84v-1.71c0-30.4-18.25-39.9-39.91-39.9-9.11,0-17.66,1.71-23.75,8.36v-17.1C238.41,133.71,245.07,127.82,256.27,127.82Zm-.95,50.54c10.84,0,17.11,5.32,17.11,19.19v1.71c0,13.11-6.27,18.81-16.91,18.81s-17.11-5.7-17.11-18.81v-3.42C238.41,183.3,245.07,178.36,255.32,178.36Z"/><path class="cls-1" d="M371.61,102c-26.23,0-46.56,12.16-46.56,44.84v50.35c0,32.68,20.33,44.84,46.56,44.84s46.73-12.16,46.73-44.84V146.82C418.34,114.14,397.82,102,371.61,102Zm17.09,95.19c0,13.11-6.45,19-17.09,19s-16.91-5.89-16.91-19V146.82c0-13.11,6.26-19,16.91-19s17.09,5.89,17.09,19Z"/><path class="cls-1" d="M466.85,136.73a15,15,0,0,0-17,24.72c14.67,10.09,32.16,26.27,32.16,46,0,17.93-14.94,36.52-42.08,52.33C410.25,277.1,367.8,290,320.41,296a15,15,0,0,0,1.87,29.88,15.71,15.71,0,0,0,1.92-.12c52-6.63,97.28-20.47,130.82-40C492.3,264,512,237,512,207.49,512,181.52,496.39,157.05,466.85,136.73Z"/><path class="cls-1" d="M226.61,264.38a15,15,0,0,0-21.22,21.21l13.07,13.07c-48-3.42-92-13.36-126.76-28.86C52.49,252.31,30,229.6,30,207.49c0-17.66,14.55-36,41-51.67A15,15,0,1,0,55.68,130C9.66,157.3,0,187.2,0,207.49c0,35,28.23,66.85,79.48,89.71,39,17.37,88.22,28.33,141.41,31.68l-15.5,15.5a15,15,0,1,0,21.22,21.21l40-40a15,15,0,0,0,0-21.21Z"/><path class="cls-1" d="M98.61,73.14q13.13,0,20-6.59t7.4-19.09l-.1-.29H109.89q-.35,6.93-2.83,10.11t-8.45,3.17a11.55,11.55,0,0,1-9.67-4.54Q85.43,51.37,85.42,44V29.05q0-7.32,3.23-11.84a10.27,10.27,0,0,1,8.84-4.51c4.42,0,7.56,1.12,9.39,3.36s2.88,5.69,3.11,10.31h16.06l.1-.3q-.93-12.5-8.06-19.28T97.49,0Q84.79,0,76.86,8.13t-7.94,21V44q0,12.94,8.25,21.05T98.61,73.14Z"/><path class="cls-1" d="M151.39,44.87h11.38q5.17,0,7.86,2.69t2.69,7.76v4.3a45.47,45.47,0,0,0,.61,7.13c.4,2.57,1.26,4.36,2.56,5.37h17v-1a8.37,8.37,0,0,1-2.88-5.08,28.48,28.48,0,0,1-.83-6.34v-4.5a19.06,19.06,0,0,0-2.86-10.76q-2.85-4.32-9.4-6.18a20.58,20.58,0,0,0,8.57-6.44A15.57,15.57,0,0,0,189,22.36q0-9.9-7.23-15.62T162.18,1H134.84V72.12h16.55Zm0-31.15h10.79q4.94,0,7.64,2.66a9.38,9.38,0,0,1,2.71,7,8.14,8.14,0,0,1-2.63,6.52q-2.64,2.27-7.62,2.27H151.39Z"/><polygon class="cls-1" points="216.48 72.12 232.94 72.12 232.94 47.12 257.1 1.02 239.19 1.02 225.02 32.08 224.73 32.08 210.62 1.02 192.8 1.02 216.48 46.29 216.48 72.12"/><path class="cls-1" d="M279,47.75h12.3q12.65,0,20.07-6.42t7.42-16.92q0-10.44-7.42-16.91T291.33,1H262.48V72.12H279Zm0-34h12.3q5.37,0,8.18,3a11,11,0,0,1,2.81,7.76,10.56,10.56,0,0,1-2.81,7.59q-2.81,3-8.18,3H279Z"/><polygon class="cls-1" points="342.41 72.12 358.96 72.12 358.96 13.72 377.71 13.72 377.71 1.02 323.81 1.02 323.81 13.72 342.41 13.72 342.41 72.12"/><path class="cls-1" d="M411.74,73.14q13.44,0,21.76-8.52T441.82,43V30.18q0-13.09-8.4-21.64T411.65,0q-13.48,0-21.86,8.54t-8.37,21.64V43q0,13.14,8.4,21.65T411.74,73.14ZM397.88,30.08q0-7.66,3.54-12.53t10.23-4.85a11.83,11.83,0,0,1,10.13,4.88q3.59,4.88,3.59,12.5V43q0,7.71-3.57,12.6a11.73,11.73,0,0,1-10.06,4.88q-6.69,0-10.28-4.88T397.88,43Z"/></g></g></svg>