<?xml version="1.0" encoding="utf-8"?>
<!-- Generator: Adobe Illustrator 22.1.0, SVG Export Plug-In . SVG Version: 6.00 Build 0)  -->
<svg version="1.1" id="Слой_1" xmlns="http://www.w3.org/2000/svg" xmlns:xlink="http://www.w3.org/1999/xlink" x="0px" y="0px"
	 viewBox="0 0 35.7 35.6" style="enable-background:new 0 0 35.7 35.6;" xml:space="preserve">
<style type="text/css">
	.st0{clip-path:url(#SVGID_2_);}
</style>
<g>
	<defs>
		<rect id="SVGID_1_" y="0" width="35.7" height="35.6"/>
	</defs>
	<clipPath id="SVGID_2_">
		<use xlink:href="#SVGID_1_"  style="overflow:visible;"/>
	</clipPath>
	<path class="st0" d="M0,35.6C0,35.6,11.6-1.5,35.7,0c0,0-3,4.8-10.6,6.4c0,0,3.5,0.4,6.4-0.5c0,0-1.7,5.5-11,6.3
		c0,0,5.1,1.3,7.4,0.6c0,0-0.6,4.1-10.1,6.2c-0.6,0.1-4.3,1.1-1.3,1.4c0,0,4.4,0.8,5.5,0.4c0,0-3.7,5.6-12.9,5.1c-0.9,0-1.3,0-1.3,0
		L0,35.6z"/>
</g>
</svg>
