<svg id="Facebook" xmlns="http://www.w3.org/2000/svg" viewBox="0 0 70 70"><defs><style>.cls-1{fill:#465995;}</style></defs><title>facebook_bitbon_today</title><path class="cls-1" d="M48.29883,42.89258V70H60A10,10,0,0,0,70,60V10A10,10,0,0,0,60,0H10A10,10,0,0,0,0,10V60A10,10,0,0,0,10,70H37.38873V42.89258H28.2666v-10.565h9.12213V24.53711c0-9.0415,5.5224-13.96478,13.58875-13.96478a74.72071,74.72071,0,0,1,8.15045.4165V20.4375l-5.59271.00238c-4.3877,0-5.23639,2.08453-5.23639,5.14313v6.74457h10.461l-1.36231,10.565Z"/></svg>