<?xml version="1.0" encoding="utf-8"?>
<!-- Generator: Adobe Illustrator 22.1.0, SVG Export Plug-In . SVG Version: 6.00 Build 0)  -->
<svg version="1.1" id="Слой_1" xmlns="http://www.w3.org/2000/svg" xmlns:xlink="http://www.w3.org/1999/xlink" x="0px" y="0px"
	 viewBox="0 0 387 387" style="enable-background:new 0 0 387 387;" xml:space="preserve">
<path class="st0" d="M291.7,90.4l10.2-10.2c2.7-2.7,2.7-7,0-9.6l-19.3-19.3c-2.7-2.7-7-2.7-9.6,0l-10.2,10.2
	C213.8,19.9,152.3-0.3,94.7,7.3c-3,0.4-5.4,2.8-5.9,5.8c-0.4,3,1.2,6,4.1,7.2c37.6,16.1,76,40.5,111.4,70.8l-27.7,27.7
	c-2.7,2.7-2.7,7,0,9.6l9.6,9.6L2,322.3c-2.7,2.7-2.7,7,0,9.6l19.3,19.3c1.3,1.3,3.1,2,4.8,2s3.5-0.7,4.8-2l184.3-184.3l9.6,9.6
	c2.6,2.6,7.1,2.6,9.6,0l27.7-27.7c30.2,35.4,54.6,73.8,70.8,111.4c1.1,2.5,3.6,4.1,6.3,4.1c0.3,0,0.6,0,0.9-0.1
	c3-0.4,5.4-2.8,5.8-5.9C353.4,200.9,333.3,139.4,291.7,90.4z"/>
</svg>
