<svg xmlns="http://www.w3.org/2000/svg" xmlns:xlink="http://www.w3.org/1999/xlink"><defs><style>
    .sprite-symbol-usage {display: none;}
    .sprite-symbol-usage:target {display: inline;}
  </style><symbol viewBox="0 0 512 369.99" id="360"><defs><style>#360 .cls-1{fill:#d38200;}</style></defs><title>Crypto_360_Bitbon_Today</title><g id="360_Layer_2" data-name="Layer 2"><g id="360_Layer_1-2" data-name="Layer 1"><path class="cls-1" d="M139.62,216.17c-8.55,0-16.91-2.09-16.91-11,0-7.22-3-9.88-15.2-9.88-10.46,0-14.06,2.28-14.06,10.83,0,16,12.53,35.91,45.21,35.91,26.61,0,48.07-11.78,48.07-42.94v-3.61c0-15.39-8.16-23.75-19.37-27.93,9.5-4.37,14.62-17.29,14.62-31.16,0-25.65-18.23-34.39-42.37-34.39-32.68,0-43.31,19.19-43.31,34,0,9.12,1.7,12,15.38,12,11,0,13.87-4.37,13.87-10.83,0-7.41,4.75-9.69,14.06-9.69,7.8,0,14.07,2.66,14.07,13.68,0,15.39-7.61,16.34-14.82,16.34-6.47,0-8.56,5.7-8.56,11.4s2.09,11.4,8.56,11.4c10.44,0,18.24,2.47,18.24,15.2v3.61C157.1,211.42,152.54,216.17,139.62,216.17Z" /><path class="cls-1" d="M256.27,127.82c8.93,0,16.53,3.8,16.53,11,0,8.74,7.22,10.83,15.4,10.83,9.5,0,13.87-2.85,13.87-12,0-15.77-12.73-35.72-44.84-35.72-27.37,0-48.46,12.16-48.46,44.84v50.35c0,32.68,20.52,44.84,46.75,44.84s46.55-12.16,46.55-44.84v-1.71c0-30.4-18.25-39.9-39.91-39.9-9.11,0-17.66,1.71-23.75,8.36v-17.1C238.41,133.71,245.07,127.82,256.27,127.82Zm-.95,50.54c10.84,0,17.11,5.32,17.11,19.19v1.71c0,13.11-6.27,18.81-16.91,18.81s-17.11-5.7-17.11-18.81v-3.42C238.41,183.3,245.07,178.36,255.32,178.36Z" /><path class="cls-1" d="M371.61,102c-26.23,0-46.56,12.16-46.56,44.84v50.35c0,32.68,20.33,44.84,46.56,44.84s46.73-12.16,46.73-44.84V146.82C418.34,114.14,397.82,102,371.61,102Zm17.09,95.19c0,13.11-6.45,19-17.09,19s-16.91-5.89-16.91-19V146.82c0-13.11,6.26-19,16.91-19s17.09,5.89,17.09,19Z" /><path class="cls-1" d="M466.85,136.73a15,15,0,0,0-17,24.72c14.67,10.09,32.16,26.27,32.16,46,0,17.93-14.94,36.52-42.08,52.33C410.25,277.1,367.8,290,320.41,296a15,15,0,0,0,1.87,29.88,15.71,15.71,0,0,0,1.92-.12c52-6.63,97.28-20.47,130.82-40C492.3,264,512,237,512,207.49,512,181.52,496.39,157.05,466.85,136.73Z" /><path class="cls-1" d="M226.61,264.38a15,15,0,0,0-21.22,21.21l13.07,13.07c-48-3.42-92-13.36-126.76-28.86C52.49,252.31,30,229.6,30,207.49c0-17.66,14.55-36,41-51.67A15,15,0,1,0,55.68,130C9.66,157.3,0,187.2,0,207.49c0,35,28.23,66.85,79.48,89.71,39,17.37,88.22,28.33,141.41,31.68l-15.5,15.5a15,15,0,1,0,21.22,21.21l40-40a15,15,0,0,0,0-21.21Z" /><path class="cls-1" d="M98.61,73.14q13.13,0,20-6.59t7.4-19.09l-.1-.29H109.89q-.35,6.93-2.83,10.11t-8.45,3.17a11.55,11.55,0,0,1-9.67-4.54Q85.43,51.37,85.42,44V29.05q0-7.32,3.23-11.84a10.27,10.27,0,0,1,8.84-4.51c4.42,0,7.56,1.12,9.39,3.36s2.88,5.69,3.11,10.31h16.06l.1-.3q-.93-12.5-8.06-19.28T97.49,0Q84.79,0,76.86,8.13t-7.94,21V44q0,12.94,8.25,21.05T98.61,73.14Z" /><path class="cls-1" d="M151.39,44.87h11.38q5.17,0,7.86,2.69t2.69,7.76v4.3a45.47,45.47,0,0,0,.61,7.13c.4,2.57,1.26,4.36,2.56,5.37h17v-1a8.37,8.37,0,0,1-2.88-5.08,28.48,28.48,0,0,1-.83-6.34v-4.5a19.06,19.06,0,0,0-2.86-10.76q-2.85-4.32-9.4-6.18a20.58,20.58,0,0,0,8.57-6.44A15.57,15.57,0,0,0,189,22.36q0-9.9-7.23-15.62T162.18,1H134.84V72.12h16.55Zm0-31.15h10.79q4.94,0,7.64,2.66a9.38,9.38,0,0,1,2.71,7,8.14,8.14,0,0,1-2.63,6.52q-2.64,2.27-7.62,2.27H151.39Z" /><polygon class="cls-1" points="216.48 72.12 232.94 72.12 232.94 47.12 257.1 1.02 239.19 1.02 225.02 32.08 224.73 32.08 210.62 1.02 192.8 1.02 216.48 46.29 216.48 72.12" /><path class="cls-1" d="M279,47.75h12.3q12.65,0,20.07-6.42t7.42-16.92q0-10.44-7.42-16.91T291.33,1H262.48V72.12H279Zm0-34h12.3q5.37,0,8.18,3a11,11,0,0,1,2.81,7.76,10.56,10.56,0,0,1-2.81,7.59q-2.81,3-8.18,3H279Z" /><polygon class="cls-1" points="342.41 72.12 358.96 72.12 358.96 13.72 377.71 13.72 377.71 1.02 323.81 1.02 323.81 13.72 342.41 13.72 342.41 72.12" /><path class="cls-1" d="M411.74,73.14q13.44,0,21.76-8.52T441.82,43V30.18q0-13.09-8.4-21.64T411.65,0q-13.48,0-21.86,8.54t-8.37,21.64V43q0,13.14,8.4,21.65T411.74,73.14ZM397.88,30.08q0-7.66,3.54-12.53t10.23-4.85a11.83,11.83,0,0,1,10.13,4.88q3.59,4.88,3.59,12.5V43q0,7.71-3.57,12.6a11.73,11.73,0,0,1-10.06,4.88q-6.69,0-10.28-4.88T397.88,43Z" /></g></g></symbol><symbol class="main-list__icon" viewBox="0 0 34.5 42.9" id="achievement">
        <style>#achievement .st1-center {
            fill-rule: evenodd;
            clip-rule: evenodd;
            fill: #009920
        }</style>
              
              <path id="achievement_center1" d="M31.2 38.9l-3-4.1s-1.1 1.1-2.6 1.1-2.4-1.4-2.4-1.4l-2.7 4.4H3.8c-1.7 0-3-1.3-3-3v-32c0-1.7 1.3-3 3-3h27c1.7 0 3 1.3 3 3v32c0 1.4-1 2.7-2.4 2.9-.2.1 0 .1-.2.1z" fill-rule="evenodd" clip-rule="evenodd" fill="url(#achievement_center)" stroke="#009920" />
              <path class="st1-center" id="achievement_Прямоугольник_1" d="M27.6 20.5h-4.1c-.4 0-.7-.3-.7-.7 0-.4.3-.7.7-.7h4.1c.4 0 .7.3.7.7 0 .4-.3.7-.7.7zm-1.4-4.2h-6.9c-.4 0-.7-.3-.7-.7s.3-.7.7-.7h6.9c.4 0 .7.3.7.7 0 .4-.3.7-.7.7zm-4.1-4.2h-1.4c-.4 0-.7-.3-.7-.7s.3-.7.7-.7h1.4c.4 0 .7.3.7.7s-.3.7-.7.7zm-4.1 0h-5.5c-.4 0-.7-.3-.7-.7s.3-.7.7-.7H18c.4 0 .7.3.7.7s-.3.7-.7.7zm-8.3 0H7c-.4 0-.7-.3-.7-.7s.3-.7.7-.7h2.8c.4 0 .7.3.7.7-.1.4-.4.7-.8.7zM9 27.5c.7 0 1.3.3 1.7.8.5 1.1.6 2.3.3 3.5.3-.2.7-.3 1-.2.3.1.5.4.5.7.4-.3.9-.5 1.4-.6.3 0 .7.2.8.5.2.3.2.6.1.9h1.8c.4 0 .7.3.7.7s-.3.7-.7.7h-2.8c-.2 0-.5-.1-.6-.3s-.1-.5 0-.7c-.3.3-.7.5-1 .9-.2.2-.5.3-.8.2s-.4-.4-.4-.6v-.3c-.3.2-.6.5-.9.8-.2.2-.6.3-.9.1-.3-.2-.4-.5-.3-.8.5-1.4 1-3.7.5-4.4 0-.4-.2-.5-.4-.5-.5 0-.9.2-1.2.6-.4.7-.3 1.9.4 3.3.2.3 0 .8-.3.9-.3.2-.7 0-.9-.3-.9-1.9-1-3.6-.4-4.7.6-.8 1.5-1.2 2.4-1.2zm12.4-7.7c0 .4-.3.7-.7.7h-6.9c-.4 0-.7-.3-.7-.7 0-.4.3-.7.7-.7h6.9c.4 0 .7.3.7.7zM7 14.9h9.6c.4 0 .7.3.7.7s-.3.7-.7.7H7c-.4 0-.7-.3-.7-.7s.3-.7.7-.7zm0 8.4h8.3c.4 0 .7.3.7.7 0 .4-.3.7-.7.7H7c-.4 0-.7-.3-.7-.7 0-.4.3-.7.7-.7zm0-4.2h4.1c.4 0 .7.3.7.7 0 .4-.3.7-.7.7H7c-.4 0-.7-.3-.7-.7s.3-.7.7-.7zm11 4.2h6.8c.4 0 .7.3.7.7 0 .4-.3.7-.7.7h-6.9c-.4 0-.7-.3-.7-.7s.4-.7.8-.7z" />
              <path class="st1-center" d="M30.8 41.4l1.3-.1c.2 0 .4-.1.5-.3s.1-.4 0-.6l-3.7-5.8-.3-.3h-.4c-.3.2-.4.5-.2.8l3.3 4.9h-.6c-.2 0-.3.1-.4.3l-.6 1.1-.2-.6-2.2-5.4c-.1-.3-.4-.4-.7-.3-.1.3-.1.6 0 .8l.7 1.8h-2.6l.8-1.7c.1-.3.1-.6 0-.9-.2-.2-.3-.1-.6.1l-3.1 5.9-.4-.6c-.1-.1-.3-.2-.4-.3h-.6l3.3-5.3c.2-.3.1-.6-.2-.8-.1-.1-.3-.1-.4-.1s-.3.1-.3.3L19 40.4c-.1.2-.1.4 0 .6.1.2.3.3.5.3l1.3.1.7 1.1c.1.2.3.3.5.3s.4-.1.5-.3l1.6-3.5h3.4l1.1 2.9c.2.5.7.9 1.2.9.2 0 .4-.1.5-.3l.5-1.1z" />
              <circle cx="25.8" cy="32.9" r="3" fill-rule="evenodd" clip-rule="evenodd" fill="#fff" stroke="#009920" />
              
              <path fill-rule="evenodd" clip-rule="evenodd" fill="url(#achievement_SVGID_1_)" stroke="#009920" d="M25 36l-1.1 2.6h3.8l-1-2.6z" />
      </symbol><linearGradient id="achievement_center" gradientUnits="userSpaceOnUse" x1="17.3" y1="4822.9" x2="17.3" y2="4784.9" gradientTransform="translate(0 -4784)">
          <stop offset="0" stop-color="#009920" stop-opacity=".5" />
                <stop offset="1" stop-color="#009920" stop-opacity=".2" />
        </linearGradient><linearGradient id="achievement_SVGID_1_" gradientUnits="userSpaceOnUse" x1="25.8" y1="-2384.779" x2="25.8" y2="-2382.142" gradientTransform="matrix(1 0 0 -1 0 -2346.128)">
          <stop offset="0" stop-color="#009920" stop-opacity=".5" />
                <stop offset="1" stop-color="#009920" stop-opacity=".4" />
        </linearGradient><symbol viewBox="0 0 7 14" id="arrow-hide">
<style type="text/css">
	#arrow-hide .st0{fill:none;stroke:#000;stroke-linecap:round;stroke-linejoin:round;}
</style>
<g>
	<path id="arrow-hide_Фигура_1021" class="st0" d="M3.5,0.5v12.8" />
	<path id="arrow-hide_Фигура_1022" class="st0" d="M0.5,9.5l3,4l3-4" />
</g>
</symbol><symbol viewBox="0 0 14 7" id="arrow-right">
<style type="text/css">
	#arrow-right .st0{fill:none;stroke:#5575C5;stroke-linecap:round;stroke-linejoin:round;}
</style>
<g>
	<path id="arrow-right_Фигура_1021" class="st0" d="M13.3,3.5L0.5,3.6" />
	<path id="arrow-right_Фигура_1022" class="st0" d="M9.5,6.5l4-3l-4-3" />
</g>
</symbol><symbol viewBox="0 0 32.7 69" id="arrow-slider">
<style type="text/css">
	#arrow-slider .st0{opacity:0.5;fill:none;stroke:#FFFFFF;stroke-width:3;enable-background:new    ;}
</style>
<path id="arrow-slider_Фигура_2325" class="st0" d="M1.5,1l29.2,35.6L1.1,68" />
</symbol><symbol viewBox="0 0 18 15" id="arrows">
<style type="text/css">
	#arrows .st0{opacity:0.5;fill:none;stroke:#FFFFFF;stroke-width:2;stroke-linecap:round;stroke-linejoin:round;enable-background:new    ;}
	#arrows .st1{opacity:0.3;fill:none;stroke:#FFFFFF;stroke-width:2;stroke-linecap:round;stroke-linejoin:round;enable-background:new    ;}
</style>
<path id="arrows_Фигура_2547_копия_2" class="st0" d="M2,5l7,7l7-7" />
<path id="arrows_Фигура_2547_копия_2-2" class="st1" d="M5,1l4,4l4-4" />
</symbol><symbol viewBox="0 0 35.7 35.6" id="articles-mobile">
<style type="text/css">
	#articles-mobile .st0{clip-path:url(#articles-mobile_SVGID_2_);}
</style>
<g>
	<defs>
		<rect id="articles-mobile_SVGID_1_" y="0" width="35.7" height="35.6" />
	</defs>
	
	<path class="st0" d="M0,35.6C0,35.6,11.6-1.5,35.7,0c0,0-3,4.8-10.6,6.4c0,0,3.5,0.4,6.4-0.5c0,0-1.7,5.5-11,6.3
		c0,0,5.1,1.3,7.4,0.6c0,0-0.6,4.1-10.1,6.2c-0.6,0.1-4.3,1.1-1.3,1.4c0,0,4.4,0.8,5.5,0.4c0,0-3.7,5.6-12.9,5.1c-0.9,0-1.3,0-1.3,0
		L0,35.6z" />
</g>
</symbol><clipPath id="articles-mobile_SVGID_2_">
		<use xlink:href="#articles-mobile_SVGID_1_" style="overflow:visible;" />
	</clipPath><symbol viewBox="0 0 29 64" id="bonnie-bubbles">
  <defs>
    <style>
      #bonnie-bubbles .cls-1 {
        fill: #f9f8fd;
        fill-rule: evenodd;
      }
    </style>
  </defs>
  <path id="bonnie-bubbles_Эллипс_1727_копия" data-name="Эллипс 1727 копия" class="cls-1" d="M14.5,34.563A14.72,14.72,0,0,1,14.5,64,14.72,14.72,0,0,1,14.5,34.563ZM11.969,15.375a7.032,7.032,0,1,1-6.937,7.031A6.985,6.985,0,0,1,11.969,15.375ZM9.453,0a4.453,4.453,0,0,1,4.422,4.484,4.422,4.422,0,1,1-8.844,0A4.453,4.453,0,0,1,9.453,0Z" />
</symbol><symbol viewBox="0 0 486.7 413.4" id="business">
<g>
	<defs>
		<rect id="business_SVGID_1_" x="0" width="486.7" height="413.4" />
	</defs>
	
	<path class="st0" d="M33,325.7v78.9c0,4.8,3.9,8.8,8.8,8.8h61c4.8,0,8.8-3.9,8.8-8.8V265.8l-44.3,44.3
		C57.9,319.4,45.9,324.8,33,325.7" />
	<path class="st0" d="M142,264.8v139.8c0,4.8,3.9,8.8,8.8,8.8h61c4.8,0,8.8-3.9,8.8-8.8v-82.3c-13.9-0.3-26.9-5.8-36.7-15.6
		L142,264.8z" />
	<path class="st0" d="M251,313.6v91c0,4.8,3.9,8.8,8.8,8.8h61c4.8,0,8.8-3.9,8.8-8.8V236.7l-69.9,69.9
		C257,309.3,254.1,311.6,251,313.6" />
	<path class="st0" d="M432.7,133.5L360,206.2v198.4c0,4.8,3.9,8.8,8.8,8.8h61c4.8,0,8.8-3.9,8.8-8.8V139c-2-1.7-3.5-3.2-4.6-4.2
		L432.7,133.5z" />
	<path class="st0" d="M482.6,4.7c-2.9-3.1-7.3-4.7-12.9-4.7h-1.6c-28.4,1.3-56.7,2.7-85.1,4c-3.8,0.2-9,0.4-13.1,4.5
		c-1.3,1.3-2.3,2.8-3.1,4.6c-4.2,9.1,1.7,15,4.5,17.8l7.1,7.2c4.9,5,9.9,10,14.9,14.9L221.7,224.7l-77.1-77.1
		c-4.6-4.6-10.8-7.2-17.4-7.2c-6.6,0-12.7,2.6-17.3,7.2L7.2,250.2c-9.6,9.6-9.6,25.1,0,34.7l4.6,4.6c4.6,4.6,10.8,7.2,17.4,7.2
		c6.6,0,12.7-2.6,17.3-7.2l80.7-80.7l77.1,77.1c4.6,4.6,10.8,7.2,17.4,7.2c6.6,0,12.7-2.6,17.4-7.2L432.7,92.3l21.9,21.8
		c2.6,2.6,6.2,6.2,11.7,6.2c2.3,0,4.6-0.6,7-1.9c1.6-0.9,3-1.9,4.2-3.1c4.3-4.3,5.1-9.8,5.3-14.1c0.8-18.4,1.7-36.8,2.6-55.3
		l1.3-27.7C487,12.4,485.7,7.9,482.6,4.7" />
</g>
</symbol><clipPath id="business_SVGID_2_">
		<use xlink:href="#business_SVGID_1_" style="overflow:visible;" />
	</clipPath><symbol viewBox="0 0 9.4 9.4" id="close">
<path class="st0" d="M8.7,1.1L8.3,0.7L4.7,4.3L1.1,0.7L0.7,1.1l3.6,3.6L0.7,8.3l0.4,0.4l3.6-3.6l3.6,3.6l0.4-0.4L5.1,4.7L8.7,1.1z" />
</symbol><symbol viewBox="0 0 463 463" id="contributing">
<g>
	<path class="st0" d="M304.6,227.3c0.4,1,0.7,2.1,0.7,3.2c0,4.5-3.6,8.1-8.1,8.1H178c-4.5,0-8.1-3.6-8.1-8.1s3.6-8.1,8.1-8.1h104.9
		c-26.9-8.9-49.6-27.3-64-51.1H178c-4.5,0-8.1-3.6-8.1-8.1v0c0-4.5,3.6-8.1,8.1-8.1h32.8c-5.6-13.7-8.7-28.7-8.7-44.4
		c0-8.2,0.8-16.2,2.4-24H94.2c-16.3,0-29.5,13.2-29.5,29.5v305.3c0,16.3,13.2,29.5,29.5,29.5H312c16.3,0,29.5-13.2,29.5-29.5V226.3
		c-7,1.3-14.3,2-21.7,2C314.7,228.3,309.6,228,304.6,227.3z M125.5,389.9c-13.6,0-24.6-11-24.6-24.6s11-24.6,24.6-24.6
		s24.6,11,24.6,24.6S139.1,389.9,125.5,389.9z M125.5,322.5c-13.6,0-24.6-11-24.6-24.6c0-13.6,11-24.6,24.6-24.6s24.6,11,24.6,24.6
		C150.1,311.5,139.1,322.5,125.5,322.5z M125.5,255.1c-13.6,0-24.6-11-24.6-24.6s11-24.6,24.6-24.6s24.6,11,24.6,24.6
		S139.1,255.1,125.5,255.1z M125.5,187.7c-13.6,0-24.6-11-24.6-24.6c0-13.6,11-24.6,24.6-24.6s24.6,11,24.6,24.6
		C150.1,176.7,139.1,187.7,125.5,187.7z M297.1,373.5H178c-4.5,0-8.1-3.6-8.1-8.1s3.6-8.1,8.1-8.1h119.2c4.5,0,8.1,3.6,8.1,8.1
		S301.6,373.5,297.1,373.5z M305.3,297.9c0,4.5-3.6,8.1-8.1,8.1H178c-4.5,0-8.1-3.6-8.1-8.1v0c0-4.5,3.6-8.1,8.1-8.1h119.2
		C301.6,289.8,305.3,293.4,305.3,297.9L305.3,297.9z" />
	<path class="st0" d="M319.8,12.1c-54.4,0-98.4,44.1-98.4,98.4s44.1,98.4,98.4,98.4c54.4,0,98.4-44.1,98.4-98.4
		S374.2,12.1,319.8,12.1z M359,89.3h-25.7c0-5.6-1.1-9.8-3.3-12.6c-2.2-2.8-5.1-4.2-8.7-4.2c-3.7,0-6.4,1.1-8.2,3.4
		c-1.8,2.3-2.6,5.2-2.6,8.7c0,3.6,0.9,6.5,2.8,8.7c1.9,2.2,5.4,4.5,10.6,6.8c12,5.1,20.8,10.2,26.5,15.3c5.6,5.1,8.5,12.4,8.5,21.9
		c0,9-2.8,16.3-8.5,21.7c-5.7,5.5-13.3,8.7-22.9,9.7v15.6h-12.3v-15.7c-10-1-18.4-4.5-25-10.5c-6.6-6-9.8-14.9-9.6-26.5l0.2-0.5
		h25.5c0,6.4,1.4,11,4.2,13.9c2.8,2.8,6.4,4.2,10.9,4.2c3.7,0,6.5-1.1,8.5-3.3c1.9-2.2,2.9-5,2.9-8.5c0-4.1-1-7.3-3-9.5
		c-2-2.3-5.5-4.5-10.5-6.6c-12.2-4.9-21.1-9.8-26.7-14.8c-5.6-5-8.3-12.3-8.3-22c0-8.7,3-16,8.9-21.6c5.9-5.7,13.8-9,23.6-9.9V36.6
		h12.3v16.7c9.3,1.3,16.7,5.2,22.1,11.5c5.4,6.3,8.1,14.4,7.9,24.1L359,89.3z" />
</g>
</symbol><symbol viewBox="0 0 40 31.7" id="developer">
<style type="text/css">
	#developer .dev1{fill:url(#developer_Прямоугольник_скругл._углы1106_1_);stroke:#6661B9;}
	#developer .dev2{fill:none;stroke:#6661B9;}
</style>
<g>
	
		
	<path id="developer_Прямоугольник_скругл._углы1106" class="dev1" d="M11,7.2c4.1,0,7.5,3.4,7.5,7.5s-3.4,7.5-7.5,7.5
		s-7.5-3.4-7.5-7.5S6.9,7.2,11,7.2z M0.5,31.2v-2c0-2.8,2.2-5,5-5h12c2.8,0,5,2.2,5,5v2h-20H0.5z" />
	<path id="developer_Фигура_57" class="dev2" d="M25.2,2.2l-5,4l5,4" />
	<path id="developer_Фигура_58" class="dev2" d="M31.2,0.2l-4,12.1" />
	<path id="developer_Фигура_57_копия_4" class="dev2" d="M34.2,2.2l5,4l-5,4" />
	<path id="developer_Фигура_59" class="dev2" d="M22.2,15.2h9" />
	<path id="developer_Фигура_60" class="dev2" d="M33.2,15.2h4" />
	<path id="developer_Фигура_61" class="dev2" d="M22.2,18.3h7" />
	<path id="developer_Фигура_62" class="dev2" d="M31.2,18.3h4" />
	<path id="developer_Фигура_63" class="dev2" d="M22.2,21.3h12" />
	<path id="developer_Фигура_63_копия" class="dev2" d="M22.2,24.3h15" />
</g>
</symbol><linearGradient id="developer_Прямоугольник_скругл._углы1106_1_" gradientUnits="userSpaceOnUse" x1="2.3483" y1="106.309" x2="24.3483" y2="128.309" gradientTransform="matrix(1 0 0 -1 0 138.3147)">
		<stop offset="0" style="stop-color:#3936C8;stop-opacity:0.502" />
		<stop offset="1" style="stop-color:#7436C8;stop-opacity:0.302" />
	</linearGradient><symbol viewBox="0 0 453.9 512" id="exchange">
<g>
	<defs>
		<rect id="exchange_SVGID_1_" x="0" width="453.9" height="512" />
	</defs>
	
	<path class="st0" d="M446.2,79.8L357.4,5c-9-7.6-22.5-6.4-30.1,2.6c-7.6,9-6.4,22.5,2.6,30.1l44,37.4H163.1
		C96.3,75.1,42.1,129.3,42,196.2v38.3c0,11.8,9.6,21.3,21.3,21.3s21.3-9.6,21.3-21.3v-38.7c0.1-43.3,35.1-78.4,78.4-78.4h211
		l-44,37.4c-9,7.6-10.2,21-2.6,30.1c7.6,9,21,10.2,30.1,2.6l88.8-74.8c9-7.6,10.2-21,2.6-30c-0.8-0.9-1.7-1.8-2.6-2.6L446.2,79.8z" />
	<path class="st0" d="M389.9,255.9c-11.8,0-21.3,9.6-21.3,21.3v38.7c-0.1,43.3-35.1,78.4-78.4,78.4h-211l44-37.4
		c10.3-5.7,14.1-18.7,8.4-29c-5.7-10.3-18.7-14.1-29-8.4c-2.4,1.3-4.5,3.1-6.2,5.2L7.6,399.5c-9,7.6-10.2,21-2.6,30
		c0.8,0.9,1.7,1.8,2.6,2.6L96.4,507c9,7.6,22.5,6.4,30.1-2.6c7.6-9,6.4-22.5-2.6-30.1l-44-37.4h210.4c66.8-0.1,121-54.2,121.1-121.1
		v-38.7C411.2,265.4,401.7,255.9,389.9,255.9" />
</g>
</symbol><clipPath id="exchange_SVGID_2_">
		<use xlink:href="#exchange_SVGID_1_" style="overflow:visible;" />
	</clipPath><symbol viewBox="0 0 19.8 12.1" id="eye">
<style type="text/css">
	#eye .st0{fill:none;stroke:#9E9E9F;stroke-width:1.3735;stroke-linecap:round;stroke-linejoin:round;}
	#eye .st1{fill:#9E9E9F;}
</style>
<g>
	<ellipse class="st0" cx="9.9" cy="6" rx="9.2" ry="5.3" />
	<path class="st1" d="M10,0.1c-2.5,0-4.4,2-4.4,4.4S7.5,9,10,9s4.4-2,4.4-4.4S12.5,0.1,10,0.1z M9.2,3.5C9,4,9,4.4,9,4.9
		c0,0.5-0.2,0.7-0.7,0.7c-0.6,0-1.2-0.4-1.2-1.3c0.1-0.4,0.1-0.8,0.2-1.2c0.1-0.4,0.4-0.7,0.8-0.8c0.4-0.1,0.7,0,1,0.3
		C9.5,2.9,9.4,3.3,9.2,3.5z" />
</g>
</symbol><symbol viewBox="0 0 70 70" id="facebook"><defs><style>#facebook .cls-1{fill:#465995;}</style></defs><title>facebook_bitbon_today</title><path class="cls-1" d="M48.29883,42.89258V70H60A10,10,0,0,0,70,60V10A10,10,0,0,0,60,0H10A10,10,0,0,0,0,10V60A10,10,0,0,0,10,70H37.38873V42.89258H28.2666v-10.565h9.12213V24.53711c0-9.0415,5.5224-13.96478,13.58875-13.96478a74.72071,74.72071,0,0,1,8.15045.4165V20.4375l-5.59271.00238c-4.3877,0-5.23639,2.08453-5.23639,5.14313v6.74457h10.461l-1.36231,10.565Z" /></symbol><symbol viewBox="0 0 503.8 503.8" id="instagram">
<g>
	<path d="M502.3,148.1c-1.2-26.8-5.5-45.1-11.7-61.2c-6.4-16.6-15.1-30.6-29.1-44.6c-14-14-28.1-22.6-44.6-29.1
		c-16-6.2-34.3-10.5-61.2-11.7C328.9,0.3,320.3,0,251.9,0s-77,0.3-103.9,1.5C121.2,2.7,102.9,7,86.9,13.2
		c-16.6,6.4-30.6,15.1-44.6,29.1c-14,14-22.6,28.1-29.1,44.6c-6.2,16-10.5,34.3-11.7,61.2C0.3,174.9,0,183.5,0,251.9
		c0,68.4,0.3,77,1.5,103.9c1.2,26.8,5.5,45.1,11.7,61.2c6.4,16.6,15.1,30.6,29.1,44.6c14,14,28.1,22.6,44.6,29.1
		c16,6.2,34.3,10.5,61.2,11.7c26.9,1.2,35.4,1.5,103.9,1.5s77-0.3,103.9-1.5c26.8-1.2,45.1-5.5,61.2-11.7
		c16.6-6.4,30.6-15.1,44.6-29.1c14-14,22.6-28.1,29.1-44.6c6.2-16,10.5-34.3,11.7-61.2c1.2-26.9,1.5-35.4,1.5-103.9
		S503.6,174.9,502.3,148.1z M251.9,381.3c-71.4,0-129.4-57.9-129.4-129.4c0-71.4,57.9-129.4,129.4-129.4s129.4,57.9,129.4,129.4
		C381.3,323.4,323.4,381.3,251.9,381.3z M386.4,147.7c-16.7,0-30.2-13.5-30.2-30.2s13.5-30.2,30.2-30.2c16.7,0,30.2,13.5,30.2,30.2
		S403.1,147.7,386.4,147.7z" />
	<circle cx="251.9" cy="251.9" r="84" />
</g>
</symbol><symbol viewBox="0 0 157.4 136.3" id="logo">
<title>Bitbon logo</title>
<g id="logo_Слой_2_1_">
	<g id="logo_Слой_1-2">
		<path d="M78.7,90.9c32.5,0,62.5,17.3,78.7,45.4C124.9,136.3,94.9,119,78.7,90.9z" />
		<path d="M78.7,0c16.2,28.1,16.2,62.7,0,90.9C62.5,62.7,62.5,28.1,78.7,0z" />
		<path d="M78.7,90.9C62.5,119,32.5,136.3,0,136.3C16.2,108.2,46.2,90.8,78.7,90.9z" />
	</g>
</g>
</symbol><symbol viewBox="0 0 387 387" id="mining">
<path class="st0" d="M291.7,90.4l10.2-10.2c2.7-2.7,2.7-7,0-9.6l-19.3-19.3c-2.7-2.7-7-2.7-9.6,0l-10.2,10.2
	C213.8,19.9,152.3-0.3,94.7,7.3c-3,0.4-5.4,2.8-5.9,5.8c-0.4,3,1.2,6,4.1,7.2c37.6,16.1,76,40.5,111.4,70.8l-27.7,27.7
	c-2.7,2.7-2.7,7,0,9.6l9.6,9.6L2,322.3c-2.7,2.7-2.7,7,0,9.6l19.3,19.3c1.3,1.3,3.1,2,4.8,2s3.5-0.7,4.8-2l184.3-184.3l9.6,9.6
	c2.6,2.6,7.1,2.6,9.6,0l27.7-27.7c30.2,35.4,54.6,73.8,70.8,111.4c1.1,2.5,3.6,4.1,6.3,4.1c0.3,0,0.6,0,0.9-0.1
	c3-0.4,5.4-2.8,5.8-5.9C353.4,200.9,333.3,139.4,291.7,90.4z" />
</symbol><symbol viewBox="0 0 387 387" id="mining-mobile">
<path class="st0" d="M291.7,90.4l10.2-10.2c2.7-2.7,2.7-7,0-9.6l-19.3-19.3c-2.7-2.7-7-2.7-9.6,0l-10.2,10.2
	C213.8,19.9,152.3-0.3,94.7,7.3c-3,0.4-5.4,2.8-5.9,5.8c-0.4,3,1.2,6,4.1,7.2c37.6,16.1,76,40.5,111.4,70.8l-27.7,27.7
	c-2.7,2.7-2.7,7,0,9.6l9.6,9.6L2,322.3c-2.7,2.7-2.7,7,0,9.6l19.3,19.3c1.3,1.3,3.1,2,4.8,2s3.5-0.7,4.8-2l184.3-184.3l9.6,9.6
	c2.6,2.6,7.1,2.6,9.6,0l27.7-27.7c30.2,35.4,54.6,73.8,70.8,111.4c1.1,2.5,3.6,4.1,6.3,4.1c0.3,0,0.6,0,0.9-0.1
	c3-0.4,5.4-2.8,5.8-5.9C353.4,200.9,333.3,139.4,291.7,90.4z" />
</symbol><symbol viewBox="0 0 60 60" id="more-mobile">
<g>
	<path d="M8,22c-4.411,0-8,3.589-8,8s3.589,8,8,8s8-3.589,8-8S12.411,22,8,22z" />
	<path d="M52,22c-4.411,0-8,3.589-8,8s3.589,8,8,8s8-3.589,8-8S56.411,22,52,22z" />
	<path d="M30,22c-4.411,0-8,3.589-8,8s3.589,8,8,8s8-3.589,8-8S34.411,22,30,22z" />
</g>
<g>
</g>
<g>
</g>
<g>
</g>
<g>
</g>
<g>
</g>
<g>
</g>
<g>
</g>
<g>
</g>
<g>
</g>
<g>
</g>
<g>
</g>
<g>
</g>
<g>
</g>
<g>
</g>
<g>
</g>
</symbol><symbol viewBox="0 0 31.41 31.42" id="news-mobile"><defs><style>#news-mobile .cls-1{fill:#939393;}</style></defs><title>Asset 1</title><g id="news-mobile_Layer_2" data-name="Layer 2"><g id="news-mobile_Capa_1" data-name="Capa 1"><path class="cls-1" d="M28.75,7l-.47.15-2.5.22-.71,1.13-.51-.16-2-1.8-.29-.93-.39-1L20.64,3.46l-1.48-.29,0,.67,1.44,1.42.71.83-.79.42-.65-.19-1-.41,0-.78L17.63,4.6,17.2,6.44l-1.28.29.13,1,1.67.32L18,6.44l1.38.21L20,7h1l.71,1.41,1.87,1.9-.14.74L22,10.88l-2.6,1.31-1.88,2.25-.24,1H16.6l-1.26-.58-1.22.58.31,1.28.53-.61.93,0-.07,1.15.78.23.77.87L18.63,18l1.43.23,1.67.45.84.1L24,20.35,26.71,22,25,25.33l-1.87.86-.7,1.93-2.7,1.8-.29,1A15.69,15.69,0,0,0,28.75,7Z" /><path class="cls-1" d="M17.51,23.92,16.37,21.8l1.05-2.19-1.05-.32-1.18-1.18-2.61-.59-.87-1.81v1.08h-.38l-2.25-3V11.23L7.43,8.55,4.81,9H3l-.89-.58,1.14-.9-1.13.26A15.69,15.69,0,0,0,15.7,31.42a16.19,16.19,0,0,0,2-.14l-.17-1.9s.72-2.83.72-2.93S17.51,23.92,17.51,23.92Z" /><path class="cls-1" d="M5.84,5.07l2.79-.39L9.91,4l1.45.42,2.31-.13L14.46,3l1.16.19,2.8-.27.78-.85,1.09-.73,1.54.23.56-.08a15.66,15.66,0,0,0-18.8,4.2h0ZM16.37,1.56,18,.68l1,.59L17.51,2.41l-1.42.14-.64-.41Zm-4.75.13.71.3.92-.3.51.88-2.14.56-1-.6S11.59,1.88,11.62,1.69Z" /></g></g></symbol><symbol viewBox="0 0 14.7 14.7" id="search">
<style type="text/css">
	#search .st0{fill:none;stroke:#F4F4F4;stroke-width:2;}
</style>
<circle id="search_Эллипс_3" class="st0" cx="6.5" cy="6.5" r="5.5" />
<path id="search_Фигура_4" class="st0" d="M14,14l-4-4" />
</symbol><symbol viewBox="0 0 512 426.7" id="telegram">
<path d="M200.9,281.2l-8.5,119.1c12.1,0,17.4-5.2,23.7-11.5l56.8-54.3l117.7,86.2c21.6,12,36.8,5.7,42.6-19.9l77.3-362.1l0,0
	C517.4,6.9,499-5.6,478,2.3L23.8,176.2c-31,12-30.5,29.3-5.3,37.1l116.1,36.1L404.3,80.6c12.7-8.4,24.2-3.8,14.7,4.7L200.9,281.2z" />
</symbol><symbol viewBox="0 0 11 11" id="time">
<style type="text/css">
	#time .st0{fill:none;stroke:#9E9E9F;}
	#time .st1{fill:none;stroke:#9E9E9F;stroke-linecap:round;stroke-linejoin:round;}
</style>
<g>
	<circle id="time_Эллипс_1" class="st0" cx="5.5" cy="5.5" r="5" />
	<path id="time_Фигура_2" class="st1" d="M6.5,3.5v3h-3" />
</g>
</symbol><symbol viewBox="0 0 250 203.1" id="twitter">
<path class="st0" d="M78.6,203.1c94.3,0,145.9-78.2,145.9-145.9c0-2.2,0-4.4-0.1-6.6c10-7.3,18.7-16.3,25.6-26.5
	c-9.4,4.1-19.3,6.9-29.5,8.1c10.7-6.4,18.7-16.5,22.5-28.4c-10.1,6-21.1,10.2-32.6,12.4c-19.4-20.7-51.9-21.7-72.6-2.2
	c-13.3,12.5-19,31.2-14.8,49C81.9,60.9,43.4,41.4,17.4,9.4C3.8,32.8,10.7,62.8,33.3,77.8c-8.2-0.2-16.1-2.4-23.3-6.4
	c0,0.2,0,0.4,0,0.6c0,24.4,17.2,45.4,41.2,50.3c-7.6,2.1-15.5,2.4-23.2,0.9c6.7,20.9,26,35.2,47.9,35.6c-18.2,14.3-40.6,22-63.7,22
	c-4.1,0-8.2-0.3-12.2-0.7C23.5,195.2,50.7,203.1,78.6,203.1" />
</symbol><symbol viewBox="0 0 20 20" id="vk"><defs><style>#vk .cls-1{fill:#5963aa;}</style></defs><g id="vk_Layer_2" data-name="Layer 2"><g id="vk_Layer_1-2" data-name="Layer 1"><path class="cls-1" d="M17.14288,0H2.85712A2.85711,2.85711,0,0,0,0,2.85712V17.14288A2.85711,2.85711,0,0,0,2.85712,20H17.14288A2.85711,2.85711,0,0,0,20,17.14288V2.85712A2.85711,2.85711,0,0,0,17.14288,0Zm.53443,15.00031H15.848c-.69671,0-.90216-.56092-2.14014-1.80909-1.08251-1.05621-1.5487-1.19262-1.81933-1.19262-.36585,0-.47614.10614-.47614.63171v1.65247c0,.45477-.14038.71753-1.30316.71753A7.10244,7.10244,0,0,1,4.53583,11.6297C2.27045,8.431,1.64893,6.01031,1.64893,5.5202c0-.27295.10528-.52051.62652-.52051H4.1048c.46612,0,.64148.20716.817.71753.8971,2.62775,2.4007,4.922,3.02222,4.922.23547,0,.34076-.10608.34076-.70245V7.22308C8.21454,5.975,7.558,5.87384,7.558,5.42914a.443.443,0,0,1,.46613-.42444h2.87183c.38592,0,.51623.20715.51623.67712V9.33038c0,.389.17542.52558.29071.52558.23047,0,.426-.13642.852-.566a15.4107,15.4107,0,0,0,2.2453-3.76978.7945.7945,0,0,1,.797-.52051h1.82928c.55133,0,.66663.28809.55133.67713H17.968c-.23554,1.07129-2.46088,4.23474-2.46088,4.23474-.19543.31323-.27057.4649,0,.8186.1955.27283.832.82367,1.25806,1.329a7.92055,7.92055,0,0,1,1.5437,2.15784C18.45917,14.73755,18.19855,15.00031,17.67731,15.00031Z" /></g></g></symbol></defs><use id="360-usage" xlink:href="#360" class="sprite-symbol-usage" /><use id="achievement-usage" xlink:href="#achievement" class="sprite-symbol-usage" /><use id="arrow-hide-usage" xlink:href="#arrow-hide" class="sprite-symbol-usage" /><use id="arrow-right-usage" xlink:href="#arrow-right" class="sprite-symbol-usage" /><use id="arrow-slider-usage" xlink:href="#arrow-slider" class="sprite-symbol-usage" /><use id="arrows-usage" xlink:href="#arrows" class="sprite-symbol-usage" /><use id="articles-mobile-usage" xlink:href="#articles-mobile" class="sprite-symbol-usage" /><use id="bonnie-bubbles-usage" xlink:href="#bonnie-bubbles" class="sprite-symbol-usage" /><use id="business-usage" xlink:href="#business" class="sprite-symbol-usage" /><use id="close-usage" xlink:href="#close" class="sprite-symbol-usage" /><use id="contributing-usage" xlink:href="#contributing" class="sprite-symbol-usage" /><use id="developer-usage" xlink:href="#developer" class="sprite-symbol-usage" /><use id="exchange-usage" xlink:href="#exchange" class="sprite-symbol-usage" /><use id="eye-usage" xlink:href="#eye" class="sprite-symbol-usage" /><use id="facebook-usage" xlink:href="#facebook" class="sprite-symbol-usage" /><use id="instagram-usage" xlink:href="#instagram" class="sprite-symbol-usage" /><use id="logo-usage" xlink:href="#logo" class="sprite-symbol-usage" /><use id="mining-usage" xlink:href="#mining" class="sprite-symbol-usage" /><use id="mining-mobile-usage" xlink:href="#mining-mobile" class="sprite-symbol-usage" /><use id="more-mobile-usage" xlink:href="#more-mobile" class="sprite-symbol-usage" /><use id="news-mobile-usage" xlink:href="#news-mobile" class="sprite-symbol-usage" /><use id="search-usage" xlink:href="#search" class="sprite-symbol-usage" /><use id="telegram-usage" xlink:href="#telegram" class="sprite-symbol-usage" /><use id="time-usage" xlink:href="#time" class="sprite-symbol-usage" /><use id="twitter-usage" xlink:href="#twitter" class="sprite-symbol-usage" /><use id="vk-usage" xlink:href="#vk" class="sprite-symbol-usage" /></svg>