<?xml version="1.0" encoding="utf-8"?>
<svg xmlns="http://www.w3.org/2000/svg" viewBox="0 0 20 20"><defs><style>.cls-1{fill:#5963aa;}</style></defs><g id="Layer_2" data-name="Layer 2"><g id="Layer_1-2" data-name="Layer 1"><path class="cls-1" d="M17.14288,0H2.85712A2.85711,2.85711,0,0,0,0,2.85712V17.14288A2.85711,2.85711,0,0,0,2.85712,20H17.14288A2.85711,2.85711,0,0,0,20,17.14288V2.85712A2.85711,2.85711,0,0,0,17.14288,0Zm.53443,15.00031H15.848c-.69671,0-.90216-.56092-2.14014-1.80909-1.08251-1.05621-1.5487-1.19262-1.81933-1.19262-.36585,0-.47614.10614-.47614.63171v1.65247c0,.45477-.14038.71753-1.30316.71753A7.10244,7.10244,0,0,1,4.53583,11.6297C2.27045,8.431,1.64893,6.01031,1.64893,5.5202c0-.27295.10528-.52051.62652-.52051H4.1048c.46612,0,.64148.20716.817.71753.8971,2.62775,2.4007,4.922,3.02222,4.922.23547,0,.34076-.10608.34076-.70245V7.22308C8.21454,5.975,7.558,5.87384,7.558,5.42914a.443.443,0,0,1,.46613-.42444h2.87183c.38592,0,.51623.20715.51623.67712V9.33038c0,.389.17542.52558.29071.52558.23047,0,.426-.13642.852-.566a15.4107,15.4107,0,0,0,2.2453-3.76978.7945.7945,0,0,1,.797-.52051h1.82928c.55133,0,.66663.28809.55133.67713H17.968c-.23554,1.07129-2.46088,4.23474-2.46088,4.23474-.19543.31323-.27057.4649,0,.8186.1955.27283.832.82367,1.25806,1.329a7.92055,7.92055,0,0,1,1.5437,2.15784C18.45917,14.73755,18.19855,15.00031,17.67731,15.00031Z"/></g></g></svg>