<?xml version="1.0" encoding="utf-8"?>
<svg class="main-list__icon" width="45px" height="55.96px" xmlns="http://www.w3.org/2000/svg" version="1.1" id="Слой_1" x="0" y="0" viewBox="0 0 34.5 42.9" xml:space="preserve">
        <style>.st1-center {
            fill-rule: evenodd;
            clip-rule: evenodd;
            fill: #009920
        }</style>
              <linearGradient id="center" gradientUnits="userSpaceOnUse" x1="17.3" y1="4822.9" x2="17.3" y2="4784.9" gradientTransform="translate(0 -4784)">
          <stop offset="0" stop-color="#009920" stop-opacity=".5"></stop>
                <stop offset="1" stop-color="#009920" stop-opacity=".2"></stop>
        </linearGradient>
              <path id="center1" d="M31.2 38.9l-3-4.1s-1.1 1.1-2.6 1.1-2.4-1.4-2.4-1.4l-2.7 4.4H3.8c-1.7 0-3-1.3-3-3v-32c0-1.7 1.3-3 3-3h27c1.7 0 3 1.3 3 3v32c0 1.4-1 2.7-2.4 2.9-.2.1 0 .1-.2.1z" fill-rule="evenodd" clip-rule="evenodd" fill="url(#center)" stroke="#009920"></path>
              <path class="st1-center" id="Прямоугольник_1" d="M27.6 20.5h-4.1c-.4 0-.7-.3-.7-.7 0-.4.3-.7.7-.7h4.1c.4 0 .7.3.7.7 0 .4-.3.7-.7.7zm-1.4-4.2h-6.9c-.4 0-.7-.3-.7-.7s.3-.7.7-.7h6.9c.4 0 .7.3.7.7 0 .4-.3.7-.7.7zm-4.1-4.2h-1.4c-.4 0-.7-.3-.7-.7s.3-.7.7-.7h1.4c.4 0 .7.3.7.7s-.3.7-.7.7zm-4.1 0h-5.5c-.4 0-.7-.3-.7-.7s.3-.7.7-.7H18c.4 0 .7.3.7.7s-.3.7-.7.7zm-8.3 0H7c-.4 0-.7-.3-.7-.7s.3-.7.7-.7h2.8c.4 0 .7.3.7.7-.1.4-.4.7-.8.7zM9 27.5c.7 0 1.3.3 1.7.8.5 1.1.6 2.3.3 3.5.3-.2.7-.3 1-.2.3.1.5.4.5.7.4-.3.9-.5 1.4-.6.3 0 .7.2.8.5.2.3.2.6.1.9h1.8c.4 0 .7.3.7.7s-.3.7-.7.7h-2.8c-.2 0-.5-.1-.6-.3s-.1-.5 0-.7c-.3.3-.7.5-1 .9-.2.2-.5.3-.8.2s-.4-.4-.4-.6v-.3c-.3.2-.6.5-.9.8-.2.2-.6.3-.9.1-.3-.2-.4-.5-.3-.8.5-1.4 1-3.7.5-4.4 0-.4-.2-.5-.4-.5-.5 0-.9.2-1.2.6-.4.7-.3 1.9.4 3.3.2.3 0 .8-.3.9-.3.2-.7 0-.9-.3-.9-1.9-1-3.6-.4-4.7.6-.8 1.5-1.2 2.4-1.2zm12.4-7.7c0 .4-.3.7-.7.7h-6.9c-.4 0-.7-.3-.7-.7 0-.4.3-.7.7-.7h6.9c.4 0 .7.3.7.7zM7 14.9h9.6c.4 0 .7.3.7.7s-.3.7-.7.7H7c-.4 0-.7-.3-.7-.7s.3-.7.7-.7zm0 8.4h8.3c.4 0 .7.3.7.7 0 .4-.3.7-.7.7H7c-.4 0-.7-.3-.7-.7 0-.4.3-.7.7-.7zm0-4.2h4.1c.4 0 .7.3.7.7 0 .4-.3.7-.7.7H7c-.4 0-.7-.3-.7-.7s.3-.7.7-.7zm11 4.2h6.8c.4 0 .7.3.7.7 0 .4-.3.7-.7.7h-6.9c-.4 0-.7-.3-.7-.7s.4-.7.8-.7z"></path>
              <path class="st1-center" d="M30.8 41.4l1.3-.1c.2 0 .4-.1.5-.3s.1-.4 0-.6l-3.7-5.8-.3-.3h-.4c-.3.2-.4.5-.2.8l3.3 4.9h-.6c-.2 0-.3.1-.4.3l-.6 1.1-.2-.6-2.2-5.4c-.1-.3-.4-.4-.7-.3-.1.3-.1.6 0 .8l.7 1.8h-2.6l.8-1.7c.1-.3.1-.6 0-.9-.2-.2-.3-.1-.6.1l-3.1 5.9-.4-.6c-.1-.1-.3-.2-.4-.3h-.6l3.3-5.3c.2-.3.1-.6-.2-.8-.1-.1-.3-.1-.4-.1s-.3.1-.3.3L19 40.4c-.1.2-.1.4 0 .6.1.2.3.3.5.3l1.3.1.7 1.1c.1.2.3.3.5.3s.4-.1.5-.3l1.6-3.5h3.4l1.1 2.9c.2.5.7.9 1.2.9.2 0 .4-.1.5-.3l.5-1.1z"></path>
              <circle cx="25.8" cy="32.9" r="3" fill-rule="evenodd" clip-rule="evenodd" fill="#fff" stroke="#009920"></circle>
              <linearGradient id="SVGID_1_" gradientUnits="userSpaceOnUse" x1="25.8" y1="-2384.779" x2="25.8" y2="-2382.142" gradientTransform="matrix(1 0 0 -1 0 -2346.128)">
          <stop offset="0" stop-color="#009920" stop-opacity=".5"></stop>
                <stop offset="1" stop-color="#009920" stop-opacity=".4"></stop>
        </linearGradient>
              <path fill-rule="evenodd" clip-rule="evenodd" fill="url(#SVGID_1_)" stroke="#009920" d="M25 36l-1.1 2.6h3.8l-1-2.6z"></path>
      </svg>