<?xml version="1.0" encoding="utf-8"?>
<!-- Generator: Adobe Illustrator 22.1.0, SVG Export Plug-In . SVG Version: 6.00 Build 0)  -->
<svg version="1.1" id="Слой_1" xmlns="http://www.w3.org/2000/svg" xmlns:xlink="http://www.w3.org/1999/xlink" x="0px" y="0px"
	 viewBox="0 0 486.7 413.4" style="enable-background:new 0 0 486.7 413.4;" xml:space="preserve">
<g>
	<defs>
		<rect id="SVGID_1_" x="0" width="486.7" height="413.4"/>
	</defs>
	<clipPath id="SVGID_2_">
		<use xlink:href="#SVGID_1_"  style="overflow:visible;"/>
	</clipPath>
	<path class="st0" d="M33,325.7v78.9c0,4.8,3.9,8.8,8.8,8.8h61c4.8,0,8.8-3.9,8.8-8.8V265.8l-44.3,44.3
		C57.9,319.4,45.9,324.8,33,325.7"/>
	<path class="st0" d="M142,264.8v139.8c0,4.8,3.9,8.8,8.8,8.8h61c4.8,0,8.8-3.9,8.8-8.8v-82.3c-13.9-0.3-26.9-5.8-36.7-15.6
		L142,264.8z"/>
	<path class="st0" d="M251,313.6v91c0,4.8,3.9,8.8,8.8,8.8h61c4.8,0,8.8-3.9,8.8-8.8V236.7l-69.9,69.9
		C257,309.3,254.1,311.6,251,313.6"/>
	<path class="st0" d="M432.7,133.5L360,206.2v198.4c0,4.8,3.9,8.8,8.8,8.8h61c4.8,0,8.8-3.9,8.8-8.8V139c-2-1.7-3.5-3.2-4.6-4.2
		L432.7,133.5z"/>
	<path class="st0" d="M482.6,4.7c-2.9-3.1-7.3-4.7-12.9-4.7h-1.6c-28.4,1.3-56.7,2.7-85.1,4c-3.8,0.2-9,0.4-13.1,4.5
		c-1.3,1.3-2.3,2.8-3.1,4.6c-4.2,9.1,1.7,15,4.5,17.8l7.1,7.2c4.9,5,9.9,10,14.9,14.9L221.7,224.7l-77.1-77.1
		c-4.6-4.6-10.8-7.2-17.4-7.2c-6.6,0-12.7,2.6-17.3,7.2L7.2,250.2c-9.6,9.6-9.6,25.1,0,34.7l4.6,4.6c4.6,4.6,10.8,7.2,17.4,7.2
		c6.6,0,12.7-2.6,17.3-7.2l80.7-80.7l77.1,77.1c4.6,4.6,10.8,7.2,17.4,7.2c6.6,0,12.7-2.6,17.4-7.2L432.7,92.3l21.9,21.8
		c2.6,2.6,6.2,6.2,11.7,6.2c2.3,0,4.6-0.6,7-1.9c1.6-0.9,3-1.9,4.2-3.1c4.3-4.3,5.1-9.8,5.3-14.1c0.8-18.4,1.7-36.8,2.6-55.3
		l1.3-27.7C487,12.4,485.7,7.9,482.6,4.7"/>
</g>
</svg>
