<?xml version="1.0" encoding="utf-8"?>
<!-- Generator: Adobe Illustrator 22.1.0, SVG Export Plug-In . SVG Version: 6.00 Build 0)  -->
<svg version="1.1" id="Слой_1" xmlns="http://www.w3.org/2000/svg" xmlns:xlink="http://www.w3.org/1999/xlink" x="0px" y="0px"
	 viewBox="0 0 463 463" style="enable-background:new 0 0 463 463;" xml:space="preserve">
<g>
	<path class="st0" d="M304.6,227.3c0.4,1,0.7,2.1,0.7,3.2c0,4.5-3.6,8.1-8.1,8.1H178c-4.5,0-8.1-3.6-8.1-8.1s3.6-8.1,8.1-8.1h104.9
		c-26.9-8.9-49.6-27.3-64-51.1H178c-4.5,0-8.1-3.6-8.1-8.1v0c0-4.5,3.6-8.1,8.1-8.1h32.8c-5.6-13.7-8.7-28.7-8.7-44.4
		c0-8.2,0.8-16.2,2.4-24H94.2c-16.3,0-29.5,13.2-29.5,29.5v305.3c0,16.3,13.2,29.5,29.5,29.5H312c16.3,0,29.5-13.2,29.5-29.5V226.3
		c-7,1.3-14.3,2-21.7,2C314.7,228.3,309.6,228,304.6,227.3z M125.5,389.9c-13.6,0-24.6-11-24.6-24.6s11-24.6,24.6-24.6
		s24.6,11,24.6,24.6S139.1,389.9,125.5,389.9z M125.5,322.5c-13.6,0-24.6-11-24.6-24.6c0-13.6,11-24.6,24.6-24.6s24.6,11,24.6,24.6
		C150.1,311.5,139.1,322.5,125.5,322.5z M125.5,255.1c-13.6,0-24.6-11-24.6-24.6s11-24.6,24.6-24.6s24.6,11,24.6,24.6
		S139.1,255.1,125.5,255.1z M125.5,187.7c-13.6,0-24.6-11-24.6-24.6c0-13.6,11-24.6,24.6-24.6s24.6,11,24.6,24.6
		C150.1,176.7,139.1,187.7,125.5,187.7z M297.1,373.5H178c-4.5,0-8.1-3.6-8.1-8.1s3.6-8.1,8.1-8.1h119.2c4.5,0,8.1,3.6,8.1,8.1
		S301.6,373.5,297.1,373.5z M305.3,297.9c0,4.5-3.6,8.1-8.1,8.1H178c-4.5,0-8.1-3.6-8.1-8.1v0c0-4.5,3.6-8.1,8.1-8.1h119.2
		C301.6,289.8,305.3,293.4,305.3,297.9L305.3,297.9z"/>
	<path class="st0" d="M319.8,12.1c-54.4,0-98.4,44.1-98.4,98.4s44.1,98.4,98.4,98.4c54.4,0,98.4-44.1,98.4-98.4
		S374.2,12.1,319.8,12.1z M359,89.3h-25.7c0-5.6-1.1-9.8-3.3-12.6c-2.2-2.8-5.1-4.2-8.7-4.2c-3.7,0-6.4,1.1-8.2,3.4
		c-1.8,2.3-2.6,5.2-2.6,8.7c0,3.6,0.9,6.5,2.8,8.7c1.9,2.2,5.4,4.5,10.6,6.8c12,5.1,20.8,10.2,26.5,15.3c5.6,5.1,8.5,12.4,8.5,21.9
		c0,9-2.8,16.3-8.5,21.7c-5.7,5.5-13.3,8.7-22.9,9.7v15.6h-12.3v-15.7c-10-1-18.4-4.5-25-10.5c-6.6-6-9.8-14.9-9.6-26.5l0.2-0.5
		h25.5c0,6.4,1.4,11,4.2,13.9c2.8,2.8,6.4,4.2,10.9,4.2c3.7,0,6.5-1.1,8.5-3.3c1.9-2.2,2.9-5,2.9-8.5c0-4.1-1-7.3-3-9.5
		c-2-2.3-5.5-4.5-10.5-6.6c-12.2-4.9-21.1-9.8-26.7-14.8c-5.6-5-8.3-12.3-8.3-22c0-8.7,3-16,8.9-21.6c5.9-5.7,13.8-9,23.6-9.9V36.6
		h12.3v16.7c9.3,1.3,16.7,5.2,22.1,11.5c5.4,6.3,8.1,14.4,7.9,24.1L359,89.3z"/>
</g>
</svg>
