<?xml version="1.0" encoding="utf-8"?>
<!-- Generator: Adobe Illustrator 22.1.0, SVG Export Plug-In . SVG Version: 6.00 Build 0)  -->
<svg version="1.1" id="Слой_1" xmlns="http://www.w3.org/2000/svg" xmlns:xlink="http://www.w3.org/1999/xlink" x="0px" y="0px"
	 viewBox="0 0 453.9 512" style="enable-background:new 0 0 453.9 512;" xml:space="preserve">
<g>
	<defs>
		<rect id="SVGID_1_" x="0" width="453.9" height="512"/>
	</defs>
	<clipPath id="SVGID_2_">
		<use xlink:href="#SVGID_1_"  style="overflow:visible;"/>
	</clipPath>
	<path class="st0" d="M446.2,79.8L357.4,5c-9-7.6-22.5-6.4-30.1,2.6c-7.6,9-6.4,22.5,2.6,30.1l44,37.4H163.1
		C96.3,75.1,42.1,129.3,42,196.2v38.3c0,11.8,9.6,21.3,21.3,21.3s21.3-9.6,21.3-21.3v-38.7c0.1-43.3,35.1-78.4,78.4-78.4h211
		l-44,37.4c-9,7.6-10.2,21-2.6,30.1c7.6,9,21,10.2,30.1,2.6l88.8-74.8c9-7.6,10.2-21,2.6-30c-0.8-0.9-1.7-1.8-2.6-2.6L446.2,79.8z"
		/>
	<path class="st0" d="M389.9,255.9c-11.8,0-21.3,9.6-21.3,21.3v38.7c-0.1,43.3-35.1,78.4-78.4,78.4h-211l44-37.4
		c10.3-5.7,14.1-18.7,8.4-29c-5.7-10.3-18.7-14.1-29-8.4c-2.4,1.3-4.5,3.1-6.2,5.2L7.6,399.5c-9,7.6-10.2,21-2.6,30
		c0.8,0.9,1.7,1.8,2.6,2.6L96.4,507c9,7.6,22.5,6.4,30.1-2.6c7.6-9,6.4-22.5-2.6-30.1l-44-37.4h210.4c66.8-0.1,121-54.2,121.1-121.1
		v-38.7C411.2,265.4,401.7,255.9,389.9,255.9"/>
</g>
</svg>
