<?xml version="1.0" encoding="utf-8"?>
<!-- Generator: Adobe Illustrator 24.2.0, SVG Export Plug-In . SVG Version: 6.00 Build 0)  -->
<svg version="1.1" id="Слой_1" xmlns="http://www.w3.org/2000/svg" xmlns:xlink="http://www.w3.org/1999/xlink" x="0px" y="0px"
	 viewBox="0 0 19.8 12.1" style="enable-background:new 0 0 19.8 12.1;" xml:space="preserve">
<style type="text/css">
	.st0{fill:none;stroke:#9E9E9F;stroke-width:1.3735;stroke-linecap:round;stroke-linejoin:round;}
	.st1{fill:#9E9E9F;}
</style>
<g>
	<ellipse class="st0" cx="9.9" cy="6" rx="9.2" ry="5.3"/>
	<path class="st1" d="M10,0.1c-2.5,0-4.4,2-4.4,4.4S7.5,9,10,9s4.4-2,4.4-4.4S12.5,0.1,10,0.1z M9.2,3.5C9,4,9,4.4,9,4.9
		c0,0.5-0.2,0.7-0.7,0.7c-0.6,0-1.2-0.4-1.2-1.3c0.1-0.4,0.1-0.8,0.2-1.2c0.1-0.4,0.4-0.7,0.8-0.8c0.4-0.1,0.7,0,1,0.3
		C9.5,2.9,9.4,3.3,9.2,3.5z"/>
</g>
</svg>
