<?xml version="1.0" encoding="utf-8"?>
<!-- Generator: Adobe Illustrator 22.1.0, SVG Export Plug-In . SVG Version: 6.00 Build 0)  -->
<svg version="1.1" id="Logo" xmlns="http://www.w3.org/2000/svg" xmlns:xlink="http://www.w3.org/1999/xlink" x="0px" y="0px"
	 viewBox="0 0 503.8 503.8" style="enable-background:new 0 0 503.8 503.8;" xml:space="preserve">
<g>
	<path d="M502.3,148.1c-1.2-26.8-5.5-45.1-11.7-61.2c-6.4-16.6-15.1-30.6-29.1-44.6c-14-14-28.1-22.6-44.6-29.1
		c-16-6.2-34.3-10.5-61.2-11.7C328.9,0.3,320.3,0,251.9,0s-77,0.3-103.9,1.5C121.2,2.7,102.9,7,86.9,13.2
		c-16.6,6.4-30.6,15.1-44.6,29.1c-14,14-22.6,28.1-29.1,44.6c-6.2,16-10.5,34.3-11.7,61.2C0.3,174.9,0,183.5,0,251.9
		c0,68.4,0.3,77,1.5,103.9c1.2,26.8,5.5,45.1,11.7,61.2c6.4,16.6,15.1,30.6,29.1,44.6c14,14,28.1,22.6,44.6,29.1
		c16,6.2,34.3,10.5,61.2,11.7c26.9,1.2,35.4,1.5,103.9,1.5s77-0.3,103.9-1.5c26.8-1.2,45.1-5.5,61.2-11.7
		c16.6-6.4,30.6-15.1,44.6-29.1c14-14,22.6-28.1,29.1-44.6c6.2-16,10.5-34.3,11.7-61.2c1.2-26.9,1.5-35.4,1.5-103.9
		S503.6,174.9,502.3,148.1z M251.9,381.3c-71.4,0-129.4-57.9-129.4-129.4c0-71.4,57.9-129.4,129.4-129.4s129.4,57.9,129.4,129.4
		C381.3,323.4,323.4,381.3,251.9,381.3z M386.4,147.7c-16.7,0-30.2-13.5-30.2-30.2s13.5-30.2,30.2-30.2c16.7,0,30.2,13.5,30.2,30.2
		S403.1,147.7,386.4,147.7z"/>
	<circle cx="251.9" cy="251.9" r="84"/>
</g>
</svg>
